<svg xmlns="http://www.w3.org/2000/svg" width="26" height="26" viewBox="0 0 26 26" fill="none">
<path fill-rule="evenodd" clip-rule="evenodd" d="M6.75 0.5C6.05964 0.5 5.5 1.05964 5.5 1.75V3H4.25C2.17893 3 0.5 4.67893 0.5 6.75V21.75C0.5 23.8211 2.17893 25.5 4.25 25.5H21.75C23.8211 25.5 25.5 23.8211 25.5 21.75V6.75C25.5 4.67893 23.8211 3 21.75 3H20.5V1.75C20.5 1.05964 19.9404 0.5 19.25 0.5C18.5596 0.5 18 1.05964 18 1.75V3H8V1.75C8 1.05964 7.44036 0.5 6.75 0.5ZM9.25 14.25C9.25 13.5596 9.80964 13 10.5 13H19.25C19.9404 13 20.5 13.5596 20.5 14.25C20.5 14.9404 19.9404 15.5 19.25 15.5H10.5C9.80964 15.5 9.25 14.9404 9.25 14.25ZM5.5 19.25C5.5 18.5596 6.05964 18 6.75 18H14.25C14.9404 18 15.5 18.5596 15.5 19.25C15.5 19.9404 14.9404 20.5 14.25 20.5H6.75C6.05964 20.5 5.5 19.9404 5.5 19.25Z" fill="white"/>
</svg>