<svg xmlns="http://www.w3.org/2000/svg" width="30" height="30" viewBox="0 0 30 30" fill="none">
<path fill-rule="evenodd" clip-rule="evenodd" d="M14.9987 29.1673C22.8227 29.1673 29.1654 22.8247 29.1654 15.0007C29.1654 7.17662 22.8227 0.833984 14.9987 0.833984C7.17466 0.833984 0.832031 7.17662 0.832031 15.0007C0.832031 22.8247 7.17466 29.1673 14.9987 29.1673ZM16.4154 7.91732C16.4154 7.13491 15.7811 6.50065 14.9987 6.50065C14.2163 6.50065 13.582 7.13491 13.582 7.91732V15.0007C13.582 15.3764 13.7313 15.7367 13.997 16.0024L17.5386 19.5441C18.0919 20.0973 18.9889 20.0973 19.5421 19.5441C20.0953 18.9908 20.0953 18.0938 19.5421 17.5406L16.4154 14.4138V7.91732Z" fill="white"/>
</svg>