<svg width="375" height="364" viewBox="0 0 375 364" fill="none" xmlns="http://www.w3.org/2000/svg">
<path d="M395.952 168.995L377.771 181.69C364.56 190.915 350.104 187.426 337.075 171.862C330.649 164.189 323.3 154.601 315.525 144.451C291.628 113.264 258.911 70.5712 246.384 79.3183L231.988 89.3711L229.656 86.0322L244.053 75.9794C259.768 65.0057 289.759 104.139 318.761 141.984C326.513 152.101 333.838 161.655 340.193 169.238C348.32 178.944 361.029 188.406 375.436 178.346L393.616 165.65L395.952 168.995Z" fill="#FFC727"/>
<path opacity="0.2" d="M240.218 78.6383L241.837 82.4746L231.976 89.3604L229.645 86.0215L240.218 78.6383Z" fill="black"/>
<path d="M189.723 86.6551L183.902 90.7197L212.304 131.393L218.125 127.329L189.723 86.6551Z" fill="#FFC727"/>
<path d="M186.006 93.7206L163.875 109.175L187.789 143.421L209.92 127.967L186.006 93.7206Z" fill="#FFC727"/>
<path opacity="0.2" d="M186.006 93.7303L209.92 127.976L204.422 131.816L178.043 99.291L186.006 93.7303Z" fill="black"/>
<path d="M151.185 127.184L168.163 115.328L171.738 120.448L154.76 132.303C154.178 132.71 153.459 132.868 152.761 132.744C152.063 132.62 151.442 132.223 151.036 131.642L150.527 130.913C150.325 130.625 150.182 130.3 150.105 129.957C150.029 129.613 150.021 129.258 150.082 128.912C150.143 128.566 150.272 128.235 150.461 127.938C150.651 127.641 150.896 127.385 151.185 127.184Z" fill="#DBDBDB"/>
<path d="M168.163 115.328L162.203 119.49L165.774 124.604L171.734 120.443L168.163 115.328Z" fill="#A6A6A6"/>
<path d="M162.939 144.018L179.917 132.162L183.492 137.282L166.514 149.137C165.932 149.543 165.213 149.702 164.515 149.578C163.817 149.454 163.196 149.057 162.79 148.476L162.281 147.747C162.079 147.459 161.936 147.134 161.859 146.791C161.783 146.447 161.775 146.092 161.836 145.746C161.897 145.4 162.026 145.069 162.215 144.772C162.404 144.475 162.65 144.219 162.939 144.018Z" fill="#DBDBDB"/>
<path d="M179.917 132.162L173.957 136.324L177.528 141.438L183.488 137.277L179.917 132.162Z" fill="#A6A6A6"/>
<path d="M235.895 79.4969L218.605 91.5703L223.373 98.3984L240.663 86.3249L235.895 79.4969Z" fill="#FFC727"/>
<path d="M235.899 79.5027L218.609 91.5762L223.377 98.4042L240.667 86.3308L235.899 79.5027Z" fill="#FFC727"/>
<path opacity="0.2" d="M224.681 87.3367L228.881 94.5611L223.377 98.4042L218.609 91.5762L224.681 87.3367Z" fill="black"/>
<path d="M192.723 90.9512L206.407 81.3958C207.314 80.7619 208.437 80.5147 209.527 80.7083C210.617 80.902 211.585 81.5207 212.219 82.4283L229.554 107.253C230.188 108.161 230.435 109.283 230.241 110.373C230.048 111.463 229.429 112.431 228.521 113.065L214.837 122.621L192.723 90.9512Z" fill="#FFC727"/>
<path opacity="0.2" d="M200 85.8674L219.649 119.258L214.841 122.616L192.727 90.9463L200 85.8674Z" fill="black"/>
<g opacity="0.2">
<path d="M203.2 93.1563L202.109 93.918L215.283 112.783L216.373 112.021L203.2 93.1563Z" fill="black"/>
<path d="M206.294 90.9962L205.203 91.7578L218.376 110.623L219.467 109.861L206.294 90.9962Z" fill="black"/>
<path d="M209.388 88.835L208.297 89.5967L221.47 108.462L222.561 107.7L209.388 88.835Z" fill="black"/>
</g>
<path d="M134.468 154.439C135.86 153.41 141.833 148.129 143.17 146.285C144.506 144.441 147.936 138.884 146.649 137.705C145.362 136.526 144.202 138.089 144.202 138.089C144.202 138.089 145.285 135.503 143.863 134.451C142.442 133.399 140.727 135.888 140.727 135.888C140.727 135.888 141.647 133.151 140.149 132.202C138.65 131.254 137.368 134.028 137.368 134.028C137.368 134.028 138.327 131.562 136.766 131.294C134.876 130.958 133.635 135.724 132.012 137.644C131.641 138.085 123.899 145.967 123.899 145.967L134.468 154.439Z" fill="#AD6359"/>
<path d="M137.522 133.762C136.586 137.247 135.578 138.613 132.972 141.021C132.964 141.031 132.96 141.044 132.96 141.056C132.96 141.069 132.964 141.082 132.971 141.092C132.978 141.102 132.989 141.11 133.001 141.114C133.013 141.119 133.025 141.119 133.038 141.116C135.799 138.989 137.314 137.459 137.691 133.802C137.696 133.632 137.549 133.611 137.522 133.762Z" fill="#263238"/>
<path d="M140.813 135.596C139.551 139.159 138.449 140.616 135.932 143.342C135.893 143.369 135.962 143.445 135.986 143.42C138.701 140.953 140.177 139.393 140.995 135.692C141.016 135.52 140.871 135.431 140.813 135.596Z" fill="#263238"/>
<path d="M144.064 138.226C142.575 141.559 141.457 143.242 138.65 145.575C138.635 145.585 138.625 145.601 138.622 145.619C138.618 145.636 138.622 145.655 138.633 145.669C138.643 145.684 138.659 145.694 138.677 145.697C138.694 145.701 138.713 145.697 138.727 145.686C141.437 144.027 143.387 141.369 144.156 138.286C144.225 138.064 144.16 138.019 144.064 138.226Z" fill="#263238"/>
<path d="M121.025 146.235C121.847 144.219 122.816 142.267 123.924 140.394C125.105 138.741 131.727 134.117 132.802 135.502C134.192 137.28 130.886 140.69 129.052 142.153C129.052 142.153 132.272 146.254 130.428 149.221C128.585 152.189 121.025 146.235 121.025 146.235Z" fill="#AD6359"/>
<path d="M133.027 136.115C133.134 138.639 130.587 140.409 128.913 141.959C128.886 141.98 128.864 142.008 128.851 142.039C128.837 142.071 128.832 142.105 128.835 142.139C128.838 142.173 128.85 142.206 128.869 142.234C128.888 142.263 128.914 142.286 128.945 142.301C130.2 144.099 131.408 147.014 130.564 149.184C130.537 149.253 130.638 149.29 130.657 149.235C131.862 147.036 130.913 144.089 129.42 142.176C131.164 140.619 133.639 138.734 133.048 136.109C133.045 136.094 133.025 136.1 133.027 136.115Z" fill="#263238"/>
<path d="M111.11 149.292C111.494 150.621 111.955 151.927 112.492 153.203C112.996 154.506 113.489 155.817 114.038 157.089C115.067 159.618 116.238 162.087 117.546 164.483C117.555 164.497 117.569 164.506 117.585 164.508C117.601 164.511 117.618 164.508 117.631 164.498C117.644 164.489 117.653 164.475 117.656 164.459C117.659 164.443 117.655 164.427 117.646 164.413C116.724 161.812 115.611 159.27 114.52 156.736C113.971 155.464 113.423 154.241 112.89 152.991C112.356 151.741 111.836 150.415 111.205 149.25C111.199 149.237 111.189 149.227 111.176 149.222C111.163 149.217 111.149 149.218 111.137 149.223C111.124 149.229 111.114 149.239 111.109 149.252C111.104 149.265 111.104 149.279 111.11 149.292Z" fill="#263238"/>
<path d="M136.195 350.384L118.014 363.079L115.683 359.74L133.863 347.045C148.265 336.989 143.764 321.795 137.452 310.822C132.51 302.227 126.058 292.063 119.242 281.318C93.7013 241.055 67.2933 199.42 83.0084 188.446L97.4102 178.39L99.7418 181.729L85.3288 191.793C72.8079 200.536 101.633 245.964 122.667 279.133C129.516 289.938 135.986 300.14 140.982 308.812C151.103 326.389 149.406 341.159 136.195 350.384Z" fill="#FFC727"/>
<path opacity="0.2" d="M97.3974 178.372L99.7289 181.711L88.2431 189.731L85.1992 186.89L97.3974 178.372Z" fill="black"/>
<path d="M163.586 166.725L169.719 162.442L139.805 119.604L133.673 123.886L163.586 166.725Z" fill="#FFC727"/>
<path d="M135.091 125.917L111.785 142.191L138.551 180.522L161.857 164.248L135.091 125.917Z" fill="#FFC727"/>
<path opacity="0.2" d="M135.089 125.917L161.855 164.248L156.068 168.289L126.703 131.773L135.089 125.917Z" fill="black"/>
<path d="M92.296 189.492L109.586 177.419L104.818 170.591L87.528 182.664L92.296 189.492Z" fill="#FFC727"/>
<path d="M104.821 170.596L87.5312 182.67L92.2992 189.498L109.589 177.425L104.821 170.596Z" fill="#FFC727"/>
<path opacity="0.2" d="M103.514 181.658L99.3176 174.44L104.821 170.596L109.585 177.419L103.514 181.658Z" fill="black"/>
<path d="M136.965 178.252L122.374 188.441C121.466 189.075 120.344 189.322 119.254 189.128C118.164 188.935 117.195 188.316 116.562 187.408L98.0492 160.897C97.4154 159.99 97.1681 158.867 97.3618 157.777C97.5554 156.687 98.1741 155.719 99.0818 155.085L113.673 144.896L136.965 178.252Z" fill="#FFC727"/>
<path opacity="0.2" d="M129.296 183.606L108.607 148.441L113.676 144.901L136.964 178.251L129.296 183.606Z" fill="black"/>
<g opacity="0.2">
<path d="M125.918 175.925L127.07 175.121L113.198 155.255L112.046 156.059L125.918 175.925Z" fill="black"/>
<path d="M122.661 178.2L123.812 177.396L109.94 157.529L108.788 158.333L122.661 178.2Z" fill="black"/>
<path d="M119.399 180.476L120.551 179.672L106.678 159.805L105.526 160.61L119.399 180.476Z" fill="black"/>
</g>
<path d="M145.068 105.262C144.994 105.314 144.903 105.334 144.814 105.318C144.726 105.302 144.647 105.252 144.595 105.178L139.128 97.3486C139.076 97.2748 139.056 97.1835 139.072 97.0949C139.088 97.0063 139.138 96.9275 139.212 96.876C139.286 96.8245 139.377 96.8044 139.465 96.8201C139.554 96.8359 139.633 96.8862 139.684 96.96L145.152 104.79C145.203 104.864 145.223 104.955 145.208 105.043C145.192 105.132 145.142 105.211 145.068 105.262Z" fill="#263238"/>
<path d="M133.516 118.906C133.466 118.941 133.409 118.962 133.349 118.967C133.289 118.973 133.229 118.963 133.174 118.938L124.541 114.874C124.497 114.859 124.455 114.834 124.421 114.802C124.386 114.769 124.358 114.73 124.34 114.686C124.321 114.643 124.312 114.596 124.313 114.548C124.314 114.501 124.324 114.454 124.344 114.411C124.364 114.368 124.393 114.329 124.429 114.298C124.465 114.267 124.507 114.243 124.552 114.229C124.597 114.215 124.645 114.211 124.692 114.217C124.74 114.222 124.785 114.238 124.826 114.262L133.458 118.325C133.499 118.344 133.535 118.37 133.566 118.402C133.596 118.435 133.62 118.473 133.635 118.515C133.65 118.557 133.657 118.601 133.655 118.646C133.653 118.69 133.641 118.734 133.622 118.774C133.599 118.827 133.562 118.872 133.516 118.906Z" fill="#263238"/>
<path d="M168.429 177.576C168.38 177.611 168.322 177.631 168.263 177.635C168.217 177.636 168.172 177.629 168.13 177.612C168.088 177.596 168.05 177.571 168.017 177.539C167.985 177.508 167.96 177.47 167.943 177.428C167.926 177.386 167.917 177.341 167.918 177.296L167.081 167.798C167.077 167.753 167.082 167.708 167.095 167.665C167.108 167.623 167.13 167.583 167.159 167.549C167.188 167.515 167.223 167.486 167.262 167.466C167.302 167.445 167.345 167.432 167.39 167.428C167.434 167.424 167.479 167.429 167.522 167.443C167.565 167.456 167.604 167.478 167.639 167.507C167.673 167.535 167.701 167.57 167.722 167.61C167.742 167.65 167.755 167.693 167.759 167.738L168.597 177.236C168.606 177.303 168.595 177.371 168.565 177.432C168.535 177.492 168.488 177.543 168.429 177.576Z" fill="#263238"/>
<path d="M204.638 152.423C204.589 152.457 204.532 152.477 204.473 152.482C204.414 152.487 204.355 152.476 204.301 152.451L195.673 148.393C195.633 148.374 195.596 148.348 195.566 148.314C195.536 148.281 195.513 148.243 195.498 148.201C195.482 148.159 195.476 148.114 195.478 148.069C195.48 148.025 195.491 147.981 195.51 147.94C195.529 147.9 195.556 147.864 195.589 147.833C195.622 147.803 195.66 147.78 195.702 147.765C195.745 147.75 195.789 147.743 195.834 147.745C195.879 147.747 195.922 147.758 195.963 147.777L204.591 151.835C204.632 151.853 204.669 151.879 204.699 151.912C204.729 151.944 204.753 151.983 204.768 152.024C204.783 152.066 204.79 152.111 204.788 152.155C204.786 152.2 204.775 152.243 204.755 152.283C204.731 152.34 204.69 152.389 204.638 152.423Z" fill="#263238"/>
<path d="M161.895 99.2247C161.846 99.2593 161.788 99.2795 161.728 99.2828C161.684 99.2872 161.639 99.2826 161.597 99.2694C161.554 99.2561 161.515 99.2345 161.481 99.2057C161.447 99.1769 161.419 99.1416 161.399 99.1019C161.379 99.0622 161.367 99.0188 161.364 98.9744L160.522 89.4707C160.524 89.3867 160.557 89.3063 160.614 89.245C160.672 89.1838 160.75 89.146 160.833 89.139C160.917 89.1321 161.001 89.1564 161.067 89.2074C161.134 89.2583 161.18 89.3322 161.195 89.4148L162.037 98.9184C162.04 98.9773 162.029 99.0361 162.005 99.0896C161.98 99.1431 161.942 99.1896 161.895 99.2247Z" fill="#263238"/>
</svg>
